Coordinates
version=1
nRows=8
nColumns=36
inDegrees=yes

Units are S.I. units (second, meters, Newtons, ...)
If the header above contains a line with 'inDegrees', this indicates whether rotational values are in degrees (yes) or radians (no).

endheader
time	pelvis_tilt	pelvis_list	pelvis_rotation	pelvis_tx	pelvis_ty	pelvis_tz	hip_flexion_r	hip_adduction_r	hip_rotation_r	knee_angle_r	knee_angle_r_beta	ankle_angle_r	subtalar_angle_r	mtp_angle_r	hip_flexion_l	hip_adduction_l	hip_rotation_l	knee_angle_l	knee_angle_l_beta	ankle_angle_l	subtalar_angle_l	mtp_angle_l	lumbar_extension	lumbar_bending	lumbar_rotation	arm_flex_r	arm_add_r	arm_rot_r	elbow_flex_r	pro_sup_r	arm_flex_l	arm_add_l	arm_rot_l	elbow_flex_l	pro_sup_l
      1.42000000	     -4.47720953	     -3.70712048	      1.38299176	      1.16448236	      1.10668082	     -0.18700954	     24.95662440	      3.44071981	     -1.44699458	     10.83922044	      0.18918009	      3.40476265	    -15.82348189	     -7.49999978	     -6.81654264	     -1.94101431	     -5.16013802	      2.12781543	      0.03713739	     12.70289609	      2.13719665	     -7.49999978	    -11.41195630	    -10.59741326	    -15.39468281	    -11.87387900	     -9.54317614	     -3.27671860	     30.16068978	     84.79357276	      1.64392838	    -14.33102849	    -12.72260798	     40.28548076	     86.77028813
      1.43000000	     -4.60886909	     -3.45143046	      1.49518283	      1.17327422	      1.10592712	     -0.18613117	     25.17854767	      3.43955074	     -1.76062556	      9.53822440	      0.16647342	      4.02322395	    -14.30603417	     -7.49999978	     -7.09841604	     -1.71164420	     -4.86895218	      2.16079228	      0.03771294	     13.42477016	      2.06168972	     -7.49999978	    -11.38704404	    -10.43525050	    -15.37466846	    -11.94547934	     -9.42068308	     -3.40725813	     30.63477390	     84.50502615	      1.40667696	    -14.27926728	    -12.72763946	     40.30300610	     86.41407850
      1.44000000	     -4.69542033	     -3.20726185	      1.62412731	      1.18217098	      1.10548233	     -0.18512750	     25.33403869	      3.50623767	     -2.04271406	      8.40073278	      0.14662045	      4.41191897	    -12.81774587	     -7.49999979	     -7.42096045	     -1.51445152	     -4.56237123	      2.20397552	      0.03846663	     14.15461355	      1.90254247	     -7.49999979	    -11.43229315	    -10.24925436	    -15.36066904	    -12.07850634	     -9.22162254	     -3.70419999	     31.17232370	     84.36988968	      1.14369986	    -14.20691885	    -12.81475444	     40.35361134	     86.22075483
      1.45000000	     -4.76130863	     -2.99256248	      1.76276158	      1.19114694	      1.10528443	     -0.18407600	     25.46905165	      3.65780833	     -2.26578881	      7.49068862	      0.13073718	      4.58021511	    -11.43487738	     -7.49999979	     -7.74340268	     -1.37205823	     -4.32712881	      2.29222472	      0.04000687	     14.88808857	      1.84469231	     -7.49999979	    -11.51599401	    -10.02749962	    -15.33569668	    -12.22031108	     -8.95735246	     -4.04616165	     31.63482397	     83.98734697	      0.89746012	    -14.13273264	    -12.90252089	     40.36407133	     85.76777515
      1.46000000	     -4.82674850	     -2.80516420	      1.92066871	      1.20014249	      1.10520924	     -0.18318276	     25.59707025	      3.87495890	     -2.44187936	      6.78448621	      0.11841162	      4.49105503	    -10.23829471	     -7.49999982	     -8.04848817	     -1.26298243	     -3.94985983	      2.40721325	      0.04201380	     15.45801837	      1.53366326	     -7.49999982	    -11.61513037	     -9.76931097	    -15.26474441	    -12.44222277	     -8.45449652	     -5.77195265	     32.13865566	     87.49049461	      0.71223324	    -13.90360853	    -13.86131397	     40.35716548	     89.43036121
      1.47000000	     -4.93637491	     -2.61192448	      1.99317575	      1.20925919	      1.10496726	     -0.18234444	     25.80594296	      4.16437156	     -2.24140230	      6.34531425	      0.11074663	      4.10831946	     -9.58321047	     -7.49999982	     -8.31236381	     -1.13967096	     -3.74956809	      2.54805020	      0.04447187	     15.98231941	      1.39474063	     -7.49999982	    -11.61382699	     -9.57031188	    -15.18461562	    -12.50660367	     -8.21638369	     -5.75613099	     32.25292326	     87.45486433	      0.42915683	    -13.84755808	    -13.87563507	     40.29755436	     89.39587348
      1.48000000	     -4.98256289	     -2.53216023	      2.15502362	      1.21856452	      1.10464508	     -0.18195827	     25.88619901	      4.53039629	     -2.39704052	      5.97672707	      0.10431357	      3.70264664	     -8.62399808	     -7.49999982	     -8.58881481	     -1.15169106	     -3.53798025	      2.79321406	      0.04875078	     16.43818560	      1.18861290	     -7.49999982	    -11.71209221	     -9.18789772	    -15.15310680	    -12.57461549	     -7.99934851	     -5.80852656	     32.47416652	     87.39471936	      0.15807039	    -13.72265673	    -13.93869963	     40.24142280	     89.34902895
      1.49000000	     -4.83264757	     -2.50557657	      2.37766447	      1.22807593	      1.10416272	     -0.18203508	     25.73949828	      4.89962021	     -2.99411038	      5.74764365	      0.10031531	      3.60532057	     -6.95669293	     -7.49999982	     -9.06438707	     -1.21141057	     -3.08946774	      3.06745933	      0.05353726	     16.75066387	      0.80644564	     -7.49999982	    -12.06762508	     -8.66351004	    -15.16757225	    -12.66150008	     -7.82182255	     -6.07446248	     32.92274909	     87.30530468	     -0.03006366	    -13.51845339	    -14.18547131	     40.17747858	     89.31678343
